<svg xmlns="http://www.w3.org/2000/svg" version="1.1" xmlns:xlink="http://www.w3.org/1999/xlink" width="1000" height="1000"><g clip-path="url(#SvgjsClipPath1074)"><rect width="1000" height="1000" fill="#ffffff"></rect><g transform="matrix(1.5625,0,0,1.5625,100,100)"><svg xmlns="http://www.w3.org/2000/svg" version="1.1" xmlns:xlink="http://www.w3.org/1999/xlink" width="512" height="512"><svg width="512" height="512" viewBox="0 0 135.46667 135.46667" version="1.1" id="svg1" xml:space="preserve" sodipodi:docname="logo-rec.svg" inkscape:version="1.4.2 (ebf0e940d0, 2025-05-08)" xmlns:inkscape="http://www.inkscape.org/namespaces/inkscape" xmlns:sodipodi="http://sodipodi.sourceforge.net/DTD/sodipodi-0.dtd" xmlns="http://www.w3.org/2000/svg" xmlns:svg="http://www.w3.org/2000/svg"><sodipodi:namedview id="namedview1" pagecolor="#ffffff" bordercolor="#000000" borderopacity="0.25" inkscape:showpageshadow="2" inkscape:pageopacity="0.0" inkscape:pagecheckerboard="0" inkscape:deskcolor="#d1d1d1" inkscape:document-units="mm" inkscape:zoom="0.70644641" inkscape:cx="214.45363" inkscape:cy="276.7372" inkscape:window-width="1840" inkscape:window-height="1011" inkscape:window-x="0" inkscape:window-y="0" inkscape:window-maximized="1" inkscape:current-layer="layer1"></sodipodi:namedview><defs id="defs1"><inkscape:path-effect effect="fillet_chamfer" id="path-effect13" is_visible="true" lpeversion="1" nodesatellites_param="F,0,0,1,0,0,0,1 @ F,0,0,1,0,2.6409873,0,1 @ F,0,0,1,0,0,0,1 @ F,0,0,1,0,0,0,1" radius="0" unit="px" method="auto" mode="F" chamfer_steps="1" flexible="false" use_knot_distance="true" apply_no_radius="true" apply_with_radius="true" only_selected="false" hide_knots="false"></inkscape:path-effect><clipPath id="SvgjsClipPath1074"><rect width="1000" height="1000" x="0" y="0" rx="300" ry="300"></rect></clipPath></defs><g inkscape:label="Layer 1" inkscape:groupmode="layer" id="layer1"><g id="g13" transform="matrix(8.0674778,0,0,8.0674778,-798.69875,-936.28822)" style="stroke:#9810fa;stroke-opacity:1"><path d="m 103.26287,128.96138 v -2.64584 c -1.5875,-0.26458 -2.64583,-1.32291 -2.64583,-2.64583 0,-1.5875 1.5875,-2.91042 3.43958,-2.64583 0.52917,-1.32292 1.85209,-2.11667 3.43959,-2.11667 1.5875,0 2.91041,0.79375 3.43958,2.11667 1.85208,-0.26459 3.43958,1.05833 3.43958,2.64583 0,1.32292 -1.05833,2.38125 -2.64583,2.64583 v 2.64584" id="path1" style="fill:none;stroke:#9810fa;stroke-width:1;stroke-dasharray:none;stroke-opacity:1"></path><path x="103.26289" y="126.31554" width="6.3499999" height="3.7041667" fill="none" id="rect1" style="fill:none;stroke:#9810fa;stroke-width:1;stroke-dasharray:none;stroke-opacity:1" inkscape:path-effect="#path-effect13" sodipodi:type="rect" d="m 103.26289,126.31554 h 3.70902 a 2.6409873,2.6409873 45 0 1 2.64098,2.64098 v 1.06318 h -6.35 z"></path></g></g></svg></svg></g></g></svg>